<?xml version="1.0" standalone="no"?>
<!DOCTYPE svg PUBLIC "-//W3C//DTD SVG 20010904//EN"
 "http://www.w3.org/TR/2001/REC-SVG-20010904/DTD/svg10.dtd">
<svg version="1.0" xmlns="http://www.w3.org/2000/svg"
 width="320.000000pt" height="320.000000pt" viewBox="0 0 320.000000 320.000000"
 preserveAspectRatio="xMidYMid meet">
<metadata>
Created by potrace 1.11, written by Peter Selinger 2001-2013
</metadata>
<g transform="translate(0.000000,320.000000) scale(0.100000,-0.100000)"
fill="#000000" stroke="none">
<path d="M1410 3149 c-396 -44 -787 -253 -1041 -557 -155 -186 -263 -395 -319
-615 -234 -925 406 -1826 1375 -1937 527 -60 1069 155 1406 558 256 307 385
682 365 1069 -45 908 -861 1585 -1786 1482z m120 -899 l0 -60 -395 0 -395 0 0
-265 0 -265 335 0 335 0 0 -55 0 -55 -335 0 -335 0 0 -330 0 -330 -70 0 -70 0
0 710 0 710 465 0 465 0 0 -60z m1180 0 l0 -60 -395 0 -395 0 0 -265 0 -265
335 0 335 0 0 -55 0 -55 -335 0 -335 0 0 -330 0 -330 -70 0 -70 0 0 710 0 710
465 0 465 0 0 -60z"/>
</g>
</svg>
